# xmcd CD database file
#
# Track frame offsets:
#	150
#	15976
#	24222
#	29533
#	75356
#	92142
#	106051
#	118183
#	146036
#	149530
#	159735
#	170827
#	183154
#	201569
#
# Disc length: 3383 seconds
#
# Revision: 1
# Processed by: cddbd v1.5.1PL2 Copyright (c) Steve Scherf et al.
# Submitted via: CDex 1.51
#
DISCID=ba0d350e
DTITLE=Giorgio Gaslini Globo Quartet - Ballets
DYEAR=2000
DGENRE=Jazz
TTITLE0=Carmen Graffiti Scene 01
TTITLE1=Carmen Graffiti Scene 02
TTITLE2=Carmen Graffiti Scene 03
TTITLE3=Carmen Graffiti Scene 04
TTITLE4=Carmen Graffiti Scene 05
TTITLE5=Carmen Graffiti Scene 06
TTITLE6=Carmen Graffiti Scene 07
TTITLE7=Carmen Graffiti Scene 08
TTITLE8=Carmen Graffiti Scene 09
TTITLE9=Carmen Graffiti Scene 10
TTITLE10=Carmen Graffiti Scene 11
TTITLE11=Carmen Graffiti Scene 12
TTITLE12=Carmen Graffiti Scene 13
TTITLE13=Dodici Minuti All'Alba
EXTD=YEAR: 2000
EXTT0=
EXTT1=
EXTT2=
EXTT3=
EXTT4=
EXTT5=
EXTT6=
EXTT7=
EXTT8=
EXTT9=
EXTT10=
EXTT11=
EXTT12=
EXTT13=
PLAYORDER=
